<svg width="589" height="589" viewBox="0 0 589 589" fill="none" xmlns="http://www.w3.org/2000/svg">
<path fill-rule="evenodd" clip-rule="evenodd" d="M136.542 451.441C136.053 445.111 133.94 438.809 131.938 432.83C126.595 416.914 118.9 402.621 105.263 392.357C98.6375 387.372 89.6504 382.704 81.0601 383.882C76.9909 384.438 72.4512 386.787 72.6542 391.49C73.0049 399.899 83.09 406.469 89.2537 410.556C104.312 420.549 132.27 431.372 136.542 451.441Z" fill="#FF206E"/>
<mask id="mask0_23_88" style="mask-type:luminance" maskUnits="userSpaceOnUse" x="72" y="383" width="65" height="69">
<path d="M136.542 451.441C136.053 445.111 133.94 438.809 131.938 432.83C126.595 416.914 118.9 402.621 105.263 392.357C98.6375 387.372 89.6504 382.704 81.0601 383.882C76.9909 384.438 72.4512 386.787 72.6542 391.49C73.0049 399.899 83.09 406.469 89.2537 410.556C104.312 420.549 132.27 431.372 136.542 451.441Z" fill="white"/>
</mask>
<g mask="url(#mask0_23_88)">
<path fill-rule="evenodd" clip-rule="evenodd" d="M76.3508 379.556C75.1978 382.43 75.6856 385.833 76.2842 388.771C76.8163 391.42 77.5591 394.114 78.9226 396.464C83.867 404.956 94.2656 408.526 103.467 409.923C107.624 410.555 114.287 410.976 117.546 407.561C119.785 405.211 118.167 402.95 118.034 400.311C118.001 399.613 118.555 399.446 119.142 399.624C122.324 400.555 125.051 405.089 126.758 407.606C131.88 415.199 135.15 424.39 136.503 433.425C136.98 436.606 137.689 441.052 135.638 443.868C133.066 447.404 127.213 444.699 124.231 443.302C123.366 442.892 122.501 442.46 121.648 442.016C120.661 441.506 119.674 440.974 118.71 440.442C117.191 439.611 115.706 438.724 114.231 437.837C105.218 432.449 62.1497 410.067 56.4737 399.48C50.5538 388.427 66.1185 383.305 76.3508 379.556Z" fill="#FF206E"/>
</g>
<path fill-rule="evenodd" clip-rule="evenodd" d="M141.172 451.441C141.661 445.112 143.774 438.81 145.777 432.83C151.119 416.914 158.814 402.621 172.452 392.357C179.077 387.373 188.064 382.705 196.654 383.882C200.724 384.438 205.263 386.788 205.06 391.491C204.71 399.899 194.624 406.469 188.461 410.556C173.402 420.549 145.444 431.373 141.172 451.441Z" fill="#FF206E"/>
<mask id="mask1_23_88" style="mask-type:luminance" maskUnits="userSpaceOnUse" x="141" y="383" width="65" height="69">
<path d="M141.172 451.441C141.661 445.111 143.774 438.809 145.777 432.83C151.119 416.914 158.814 402.621 172.452 392.357C179.077 387.372 188.064 382.704 196.654 383.882C200.724 384.438 205.263 386.787 205.06 391.49C204.71 399.899 194.624 406.469 188.461 410.556C173.402 420.549 145.444 431.372 141.172 451.441Z" fill="white"/>
</mask>
<g mask="url(#mask1_23_88)">
<path fill-rule="evenodd" clip-rule="evenodd" d="M201.364 379.556C202.517 382.43 202.029 385.833 201.43 388.771C200.898 391.42 200.156 394.114 198.792 396.464C193.848 404.956 183.449 408.526 174.248 409.923C170.091 410.555 163.428 410.976 160.169 407.561C157.929 405.211 159.548 402.95 159.681 400.311C159.714 399.613 159.16 399.446 158.572 399.624C155.391 400.555 152.664 405.089 150.956 407.606C145.835 415.199 142.564 424.39 141.212 433.425C140.735 436.606 140.026 441.052 142.076 443.868C144.648 447.404 150.502 444.699 153.484 443.302C154.349 442.892 155.213 442.46 156.067 442.016C157.054 441.506 158.04 440.974 159.005 440.442C160.523 439.611 162.009 438.724 163.483 437.837C172.496 432.449 215.565 410.067 221.241 399.48C227.161 388.427 211.596 383.305 201.364 379.556Z" fill="#FF206E"/>
</g>
<path fill-rule="evenodd" clip-rule="evenodd" d="M134.528 448.311C134.846 436.39 135.593 423.564 134.222 411.263C132.912 399.616 129.705 388.433 122.031 379.144C113.719 369.07 101.871 362.751 91.2584 355.404C79.4465 347.219 69.1033 337.85 65.1252 322.403C63.9134 317.746 63.4605 312.905 63.9257 308.118C64.4275 303.014 66.1167 298.092 68.3811 293.49C69.4705 291.273 72.1634 290.362 74.3789 291.455C76.5944 292.548 77.5125 295.236 76.4109 297.452C74.6238 301.089 73.2406 304.964 72.8366 308.999C72.4694 312.742 72.8489 316.524 73.7914 320.165C77.1942 333.324 86.2887 341.069 96.3625 348.042C107.636 355.851 120.109 362.736 128.946 373.44C146.119 394.257 144.161 423.279 143.488 448.55C143.414 451.027 141.358 452.98 138.885 452.908C136.413 452.849 134.467 450.788 134.528 448.311Z" fill="#FF206E"/>
<mask id="mask2_23_88" style="mask-type:luminance" maskUnits="userSpaceOnUse" x="63" y="290" width="81" height="163">
<path d="M134.528 448.311C134.846 436.39 135.593 423.564 134.222 411.263C132.912 399.616 129.705 388.433 122.031 379.144C113.719 369.07 101.871 362.751 91.2584 355.404C79.4465 347.219 69.1033 337.85 65.1252 322.403C63.9134 317.746 63.4605 312.905 63.9257 308.118C64.4275 303.014 66.1167 298.092 68.3811 293.49C69.4705 291.273 72.1634 290.362 74.3789 291.455C76.5944 292.548 77.5125 295.236 76.4109 297.452C74.6238 301.089 73.2406 304.964 72.8366 308.999C72.4694 312.742 72.8489 316.524 73.7914 320.165C77.1942 333.324 86.2887 341.069 96.3625 348.042C107.636 355.851 120.109 362.736 128.946 373.44C146.119 394.257 144.161 423.279 143.488 448.55C143.414 451.027 141.358 452.98 138.885 452.908C136.413 452.849 134.467 450.788 134.528 448.311Z" fill="white"/>
</mask>
<g mask="url(#mask2_23_88)">
<path fill-rule="evenodd" clip-rule="evenodd" d="M88.137 285.108C81.3405 290.673 78.7328 324.896 73.8239 332.051C72.6595 333.764 70.8674 340.466 68.5256 340.85C66.715 341.143 65.1641 338.512 64.396 337.291C61.6587 332.971 60.149 327.727 58.8401 322.839C55.4338 310.232 53.5566 295.046 57.3868 282.343C58.0261 280.197 58.8926 278.035 60.0977 276.141C65.3882 267.877 75.0357 272.036 80.8349 277.212C83.5127 279.61 85.8841 282.305 88.137 285.108Z" fill="#FF206E"/>
</g>
<path d="M81.035 319.414C57.8194 319.414 38.9994 300.595 38.9994 277.379C38.9994 254.163 57.8194 235.344 81.035 235.344C104.251 235.344 123.07 254.163 123.07 277.379C123.07 300.595 104.251 319.414 81.035 319.414Z" fill="#C96480"/>
<mask id="mask3_23_88" style="mask-type:luminance" maskUnits="userSpaceOnUse" x="38" y="235" width="86" height="85">
<path d="M81.035 319.414C57.8194 319.414 38.9994 300.595 38.9994 277.379C38.9994 254.163 57.8194 235.344 81.035 235.344C104.251 235.344 123.07 254.163 123.07 277.379C123.07 300.595 104.251 319.414 81.035 319.414Z" fill="white"/>
</mask>
<g mask="url(#mask3_23_88)">
<path fill-rule="evenodd" clip-rule="evenodd" d="M46.7716 244.439C42.5811 265.125 43.9226 290.124 62.813 303.305C66.416 305.81 70.3736 307.795 74.5197 309.214C84.9627 312.784 97.4898 312.728 107.511 307.872C110.46 306.453 113.265 304.646 115.649 302.396C117.145 300.988 118.631 298.638 120.493 297.718C122.345 296.798 122.854 299.148 122.744 300.478C122.344 305.489 118.952 310.455 115.904 314.225C104.175 328.736 84.8075 332.993 67.3139 327.339C37.149 317.595 21.3626 271.976 46.7716 244.439Z" fill="#C96480"/>
</g>
<path d="M89.4637 283.152C88.6881 281.808 87.6992 280.953 86.493 280.591C85.2912 280.225 83.602 280.222 81.4255 280.583C79.2536 280.941 77.3271 281.163 75.6507 281.246C73.9697 281.332 72.42 281.211 70.9969 280.885C69.5784 280.557 68.2696 279.964 67.0842 279.097C65.8945 278.233 64.8383 276.997 63.911 275.391C62.3123 272.622 61.8873 269.841 62.6357 267.05C63.3842 264.258 65.1366 261.87 67.9012 259.88L64.8646 254.621L68.795 252.352L71.8741 257.685C75.0136 256.418 77.9815 256.316 80.7777 257.378C83.5739 258.44 85.8966 260.568 87.7414 263.763L80.6374 267.864C79.5021 265.898 78.245 264.663 76.8749 264.154C75.5002 263.648 74.1318 263.788 72.7743 264.571C71.4306 265.347 70.6096 266.329 70.311 267.517C70.0127 268.706 70.2535 269.97 71.0293 271.314C71.7482 272.559 72.6831 273.352 73.8427 273.688C74.9981 274.026 76.7818 274.023 79.1942 273.679C81.6066 273.335 83.6445 273.147 85.3076 273.115C86.9707 273.083 88.4888 273.255 89.8664 273.629C91.2392 274.005 92.4815 274.621 93.588 275.478C94.6948 276.336 95.6785 277.51 96.5393 279.001C98.1476 281.787 98.5818 284.551 97.851 287.289C97.1156 290.029 95.3128 292.435 92.4474 294.505L95.2713 299.396L91.3639 301.652L88.554 296.785C84.9843 298.366 81.6958 298.675 78.684 297.716C75.6718 296.757 73.1963 294.598 71.257 291.239L78.361 287.137C79.4865 289.087 80.8129 290.315 82.3401 290.82C83.8673 291.326 85.4976 291.078 87.2357 290.075C88.6758 289.243 89.5933 288.206 89.9925 286.959C90.3874 285.716 90.2112 284.446 89.4637 283.152Z" fill="white"/>
<path fill-rule="evenodd" clip-rule="evenodd" d="M473.949 283.372C433.351 262.506 348.086 286.065 348.086 286.065L277.765 200.407C277.765 200.407 281.322 180.346 279.103 178.678C271.816 173.202 266.408 188.229 266.408 188.229C266.408 188.229 236.95 171.366 228.593 171.818C212.063 172.715 243.244 199.028 243.244 199.028C243.244 199.028 271.36 305.107 302.378 331.704C333.395 358.302 404.119 357.169 429.322 358.621C475.668 361.292 497.536 295.495 473.949 283.372Z" fill="#FAD8BA"/>
<mask id="mask4_23_88" style="mask-type:luminance" maskUnits="userSpaceOnUse" x="223" y="171" width="261" height="188">
<path d="M473.948 283.372C433.351 262.506 348.086 286.065 348.086 286.065L277.765 200.407C277.765 200.407 281.322 180.346 279.103 178.678C271.816 173.202 266.408 188.23 266.408 188.23C266.408 188.23 236.95 171.366 228.593 171.818C212.063 172.715 243.244 199.028 243.244 199.028C243.244 199.028 271.36 305.107 302.377 331.704C333.395 358.302 404.119 357.169 429.322 358.621C475.668 361.292 497.536 295.495 473.948 283.372Z" fill="white"/>
</mask>
<g mask="url(#mask4_23_88)">
<path fill-rule="evenodd" clip-rule="evenodd" d="M244.082 201.309C251.145 208.29 272.276 308.254 337.635 335.739C352.082 341.813 378.413 331.903 394.069 331.865C401.68 331.846 410.511 329.302 417.98 330.71C424.05 331.853 427.643 337.731 428.569 343.457C433.202 372.082 396.896 381.24 375.642 381.614C370.669 381.701 365.696 381.587 360.742 381.12C355.334 380.61 349.917 379.88 344.584 378.828C289.474 367.962 257.772 255.429 244.082 201.309Z" fill="#D7B699"/>
<path fill-rule="evenodd" clip-rule="evenodd" d="M394.534 268.576C386.374 281.126 385.719 297.952 385.443 312.434C385.236 323.077 385.271 333.45 388.863 343.565C392.012 352.421 396.893 362.395 403.97 368.833C418.514 382.044 440.374 374.365 454.909 365.317C481.083 349.026 503.951 310.992 481.387 282.741C477.89 278.36 473.564 274.523 468.83 271.519C459.975 265.901 404.779 270.093 394.534 268.576Z" fill="black"/>
</g>
<path fill-rule="evenodd" clip-rule="evenodd" d="M530.189 304.032C509.124 282.963 419.438 244.329 411.818 302.848C401.852 379.352 364.668 453.375 364.668 453.375L526.87 452.259C526.87 452.259 551.244 325.102 530.189 304.032Z" fill="black"/>
<mask id="mask5_23_88" style="mask-type:luminance" maskUnits="userSpaceOnUse" x="364" y="271" width="175" height="183">
<path d="M530.189 304.032C509.124 282.963 419.438 244.329 411.818 302.848C401.852 379.352 364.668 453.375 364.668 453.375L526.87 452.259C526.87 452.259 551.244 325.102 530.189 304.032Z" fill="white"/>
</mask>
<g mask="url(#mask5_23_88)">
<path fill-rule="evenodd" clip-rule="evenodd" d="M541.052 302.262C533.242 339.45 521.197 382.175 491.444 407.785C480.004 417.637 461.823 419.896 446.771 433.757C421.244 457.251 407.204 446.823 386.129 439.108C375.871 435.364 362.71 430.296 351.819 431.658C336.918 433.53 341.22 445.395 349.03 455.379C355.629 463.794 365.821 468.663 375.625 472.284C395.565 479.659 417.386 482.75 438.536 483.658C468.025 484.915 500.671 482.476 527.106 468.152C581.158 438.853 562.788 355.487 541.052 302.262Z" fill="black"/>
</g>
<path fill-rule="evenodd" clip-rule="evenodd" d="M462.787 261.822L486.37 262.164C483.1 271.029 484.558 275.548 487.922 283.864C457.929 341.794 450.201 322.154 460.364 284.396C464.339 278.74 465.657 271.515 462.787 261.822Z" fill="#FAD8BA"/>
<mask id="mask6_23_88" style="mask-type:luminance" maskUnits="userSpaceOnUse" x="456" y="261" width="32" height="60">
<path d="M462.787 261.822L486.37 262.164C483.1 271.029 484.558 275.548 487.922 283.864C457.929 341.794 450.201 322.154 460.364 284.396C464.339 278.74 465.657 271.515 462.787 261.822Z" fill="white"/>
</mask>
<g mask="url(#mask6_23_88)">
<path fill-rule="evenodd" clip-rule="evenodd" d="M460.239 275.744C464.545 281.991 471.939 284.531 479.253 283.002C483.467 282.126 487.481 279.47 488.382 274.982C489.297 270.41 486.474 266.783 482.645 264.602C476.669 261.204 465.645 271.378 460.239 275.744Z" fill="#D7B699"/>
<path fill-rule="evenodd" clip-rule="evenodd" d="M461.232 247.132C459.794 258.143 458.209 269.313 458.95 280.43C459.334 286.207 451.723 313.052 463.761 316.086C474.245 318.723 476.089 322.088 469.121 328.302C462.274 334.398 453.05 334.159 447.458 326.567C444.163 322.101 442.46 316.443 441.46 311.051C439.262 299.179 458.731 258.845 461.232 247.132Z" fill="#D7B699"/>
</g>
<path fill-rule="evenodd" clip-rule="evenodd" d="M473.878 233.519C464.758 233.519 457.356 243.305 457.356 255.359C457.356 267.411 458.938 277.868 468.048 277.868C477.167 277.868 490.391 267.411 490.391 255.359C490.391 243.305 482.988 233.519 473.878 233.519Z" fill="#FAD8BA"/>
<path fill-rule="evenodd" clip-rule="evenodd" d="M473.981 250.096C471.532 253.316 466.739 254.333 462.966 254.207C459.591 254.095 456.055 253.252 453.02 251.791C444.568 247.73 445.617 237.658 449.333 230.529C452.633 224.204 458.305 220.42 465.084 224.3C466.389 225.05 467.391 226.109 468.346 227.262C471.078 226.135 474.416 226.294 477.281 226.604C479.843 226.88 482.566 227.317 484.967 228.277C495.755 232.591 498.175 244.624 495.282 254.7C494.044 258.997 491.699 263.394 488.248 266.321C486.697 267.632 484.589 268.92 482.452 268.505C476.94 267.437 482.377 262.169 482.972 259.513C483.265 258.217 483.237 256.055 481.696 255.556C480.788 255.259 479.9 255.659 479.2 256.236C477.309 257.796 476.373 260.264 474.321 261.692C472.487 262.969 471.929 261.433 472.43 259.819C472.601 259.269 472.799 258.731 473.007 258.192C473.414 257.114 473.849 251.243 473.981 250.096Z" fill="#03222F"/>
<path d="M263.262 338.393L250.707 322.744C250.707 322.744 285.103 313.646 291.447 309.696C300.504 304.061 312.19 300.512 326.514 299.048C340.847 297.586 351.209 295.463 357.61 292.683C364.02 289.902 369.173 285.813 373.068 280.414C384.83 264.123 383.184 250.55 368.152 239.695C361.013 234.546 353.724 232.617 346.264 233.906C338.805 235.196 332.205 239.627 326.438 247.2L284.507 216.933L271.932 200.714C271.932 200.714 317.901 188.183 333.576 186.587C352.797 184.63 372.539 190.958 392.781 205.57C413.222 220.321 425.513 236.708 429.654 254.729C433.804 272.751 429.37 290.776 416.361 308.802C410.442 316.996 403.03 323.41 394.114 328.044C385.198 332.678 372.955 336.125 357.402 338.383L337.651 341.063C325.247 342.812 315.102 348.027 307.217 356.709L300.277 365.112L263.262 338.393Z" fill="#023341"/>
<path d="M227.023 379.758C231.684 373.299 237.726 369.556 245.138 368.529C252.551 367.501 259.679 369.458 266.524 374.398C273.37 379.339 277.463 385.488 278.825 392.849C280.186 400.205 278.532 407.116 273.871 413.574C269.276 419.937 263.348 423.643 256.058 424.692C248.778 425.742 241.621 423.728 234.587 418.641C227.543 413.564 223.383 407.409 222.078 400.167C220.783 392.925 222.428 386.12 227.023 379.758Z" fill="#023341"/>
<path d="M250.647 322.081C260.388 308.586 269.845 299.055 278.903 293.435C287.969 287.806 299.639 284.238 313.907 282.743C328.282 281.309 338.617 279.173 345.025 276.385C351.426 273.608 356.627 269.555 360.526 264.153C372.288 247.857 370.591 234.246 355.541 223.383C348.465 218.275 341.101 216.296 333.65 217.588C326.199 218.88 319.639 223.346 313.872 230.917L271.912 200.63C285.398 182.365 301.78 172.269 320.959 170.271C340.231 168.354 359.941 174.653 380.173 189.257C400.605 204.005 412.885 220.387 417.118 238.465C421.244 256.482 416.753 274.463 403.746 292.483C397.826 300.686 390.449 307.126 381.51 311.74C372.67 316.426 360.364 319.823 344.792 322.075L325.094 324.79C312.64 326.503 302.506 331.725 294.689 340.454L287.724 348.843L250.647 322.081ZM214.418 363.452C219.08 356.993 225.122 353.244 232.529 352.223C239.943 351.192 247.134 353.2 253.911 358.092C260.789 363.056 264.86 369.178 266.217 376.539C267.581 383.89 265.925 390.806 261.263 397.264C256.673 403.623 250.789 407.365 243.51 408.418C236.232 409.47 229.054 407.442 221.977 402.334C215 397.298 210.816 391.125 209.523 383.886C208.23 376.646 209.828 369.811 214.418 363.452Z" fill="#03A3EC"/>
<path fill-rule="evenodd" clip-rule="evenodd" d="M525.017 303.874C479.616 308.598 421.102 374.939 421.102 374.939L315.39 341.66C315.39 341.66 307.401 322.919 304.631 322.735C295.536 322.134 299.223 337.673 299.223 337.673C299.223 337.673 271.209 335.018 266.321 336.717C250.683 342.162 285.731 359.379 285.731 359.379C285.731 359.379 367.268 432.83 407.78 438.143C448.293 443.457 506.892 403.842 528.789 391.28C569.056 368.179 551.395 301.13 525.017 303.874Z" fill="#FAD8BA"/>
<mask id="mask7_23_88" style="mask-type:luminance" maskUnits="userSpaceOnUse" x="262" y="303" width="291" height="136">
<path d="M525.017 303.874C479.616 308.598 421.102 374.939 421.102 374.939L315.39 341.66C315.39 341.66 307.401 322.919 304.631 322.735C295.536 322.134 299.223 337.673 299.223 337.673C299.223 337.673 271.209 335.018 266.321 336.717C250.683 342.162 285.731 359.379 285.731 359.379C285.731 359.379 367.268 432.83 407.78 438.143C448.293 443.457 506.892 403.842 528.789 391.28C569.056 368.179 551.395 301.13 525.017 303.874Z" fill="white"/>
</mask>
<g mask="url(#mask7_23_88)">
<path fill-rule="evenodd" clip-rule="evenodd" d="M471.665 340.593C469.66 350.38 471.107 362.386 474.993 371.454C477.744 377.85 481.063 383.99 483.757 390.4C484.863 393.026 486.641 396.468 485.762 399.399C484.741 402.802 480.798 405.506 477.971 407.246C475.418 408.815 472.677 410.082 469.869 411.103C465.122 412.833 460.149 413.93 455.195 414.876C447.404 416.36 439.425 417.154 431.511 417.646C419.495 418.383 407.213 418.279 395.272 416.54C368.317 412.607 343.177 401.772 320.638 386.769C312.015 381.027 303.525 375.015 295.299 368.713C293.333 367.203 285.92 359.969 287.178 366.799C288.265 372.732 291.697 378.541 294.761 383.613C301.161 394.208 308.734 404.003 317.612 412.635C325.951 420.747 335.358 427.8 345.314 433.785C391.746 461.676 448.435 457.629 495.727 433.917C517.113 423.196 540.655 407.917 550.743 385.226C553.901 378.106 471.041 348.301 471.665 340.593Z" fill="#D7B699"/>
<path fill-rule="evenodd" clip-rule="evenodd" d="M463.468 325.564C463.496 340.533 472.147 354.98 479.834 367.258C485.478 376.282 491.179 384.948 499.717 391.454C507.195 397.148 516.735 402.83 526.18 404.353C545.581 407.463 559.687 389.083 566.91 373.56C579.92 345.61 578.275 301.261 543.936 289.941C538.613 288.185 532.893 287.337 527.286 287.41C516.801 287.547 472.875 321.233 463.468 325.564Z" fill="black"/>
</g>
<path fill-rule="evenodd" clip-rule="evenodd" d="M54.4834 122.979C54.4834 107.181 76.2385 91.0302 92.0363 91.0302H198.362C214.16 91.0302 226.987 103.857 226.987 119.655V176.904C226.987 192.703 214.16 205.529 198.362 205.529V241.325C198.362 243.437 185.021 255.067 183.602 253.499C170.68 239.173 154.087 205.529 154.087 205.529H92.0363C76.2385 205.529 63.412 192.703 63.412 176.904L54.4834 122.979Z" fill="#023341"/>
<path fill-rule="evenodd" clip-rule="evenodd" d="M53.3403 127.344C53.3403 111.545 66.1669 98.719 81.9646 98.719H188.291C204.089 98.719 216.915 111.545 216.915 127.344V184.593C216.915 200.392 204.089 213.218 188.291 213.218V249.013C188.291 251.126 186.989 253.019 185.018 253.777C183.047 254.535 180.811 254.001 179.392 252.433C166.47 238.105 144.016 213.218 144.016 213.218H81.9646C66.1669 213.218 53.3403 200.392 53.3403 184.593V127.344Z" fill="#FF206E"/>
<path fill-rule="evenodd" clip-rule="evenodd" d="M79.8229 126.865C65.6792 142.151 66.6053 166.003 81.8883 180.143C88.4415 186.207 96.9362 189.749 105.856 190.137L107.087 161.887C104.854 161.79 102.731 160.905 101.092 159.388C97.2725 155.855 97.0409 149.89 100.578 146.068L79.8229 126.865Z" fill="white"/>
<path fill-rule="evenodd" clip-rule="evenodd" d="M112.933 189.78C121.465 188.534 129.314 184.403 135.17 178.074C148.867 163.271 148.487 140.309 134.307 125.965L120.901 139.22C127.989 146.39 128.179 157.871 121.332 165.271C118.403 168.437 114.48 170.501 110.216 171.125L112.933 189.78Z" fill="white"/>
<path fill-rule="evenodd" clip-rule="evenodd" d="M127.738 120.663C114.49 112.23 97.4012 112.894 84.8466 122.328L92.8916 133.035C100.986 126.954 112.005 126.526 120.547 131.962L127.738 120.663Z" fill="white"/>
<path fill-rule="evenodd" clip-rule="evenodd" d="M186.589 129.253C186.589 128.158 186.156 127.108 185.378 126.334C184.6 125.559 183.553 125.124 182.454 125.124C176.525 125.124 165.661 125.124 159.724 125.124C158.632 125.124 157.578 125.559 156.808 126.334C156.03 127.108 155.596 128.158 155.596 129.253C155.596 129.284 155.596 129.315 155.596 129.346C155.596 130.441 156.03 131.491 156.808 132.265C157.578 133.04 158.632 133.475 159.724 133.475C165.661 133.475 176.525 133.475 182.454 133.475C183.553 133.475 184.6 133.04 185.378 132.265C186.156 131.491 186.589 130.441 186.589 129.346C186.589 129.315 186.589 129.284 186.589 129.253Z" fill="white"/>
<path fill-rule="evenodd" clip-rule="evenodd" d="M205.914 149.07C205.914 148.161 205.549 147.287 204.906 146.644C204.262 146 203.388 145.638 202.478 145.638C193.287 145.638 168.217 145.638 159.027 145.638C158.116 145.638 157.242 146 156.599 146.644C155.955 147.287 155.591 148.161 155.591 149.07C155.591 149.072 155.591 149.072 155.591 149.074C155.591 149.983 155.955 150.857 156.599 151.5C157.242 152.144 158.116 152.506 159.027 152.506C168.217 152.506 193.287 152.506 202.478 152.506C203.388 152.506 204.262 152.144 204.906 151.5C205.549 150.857 205.914 149.983 205.914 149.074C205.914 149.072 205.914 149.072 205.914 149.07Z" fill="white"/>
<path fill-rule="evenodd" clip-rule="evenodd" d="M205.914 160.616C205.914 159.706 205.549 158.833 204.906 158.189C204.262 157.545 203.388 157.184 202.478 157.184C193.287 157.184 168.217 157.184 159.027 157.184C158.116 157.184 157.242 157.545 156.599 158.189C155.955 158.833 155.591 159.706 155.591 160.616C155.591 160.617 155.591 160.618 155.591 160.619C155.591 161.529 155.955 162.402 156.599 163.046C157.242 163.689 158.116 164.051 159.027 164.051C168.217 164.051 193.287 164.051 202.478 164.051C203.388 164.051 204.262 163.689 204.906 163.046C205.549 162.402 205.914 161.529 205.914 160.619C205.914 160.618 205.914 160.617 205.914 160.616Z" fill="white"/>
<path fill-rule="evenodd" clip-rule="evenodd" d="M205.914 172.16C205.914 171.25 205.549 170.377 204.906 169.734C204.262 169.09 203.388 168.728 202.478 168.728C193.287 168.728 168.217 168.728 159.027 168.728C158.116 168.728 157.242 169.09 156.599 169.734C155.955 170.377 155.591 171.25 155.591 172.16C155.591 172.162 155.591 172.162 155.591 172.164C155.591 173.073 155.955 173.947 156.599 174.59C157.242 175.234 158.116 175.595 159.027 175.595C168.217 175.595 193.287 175.595 202.478 175.595C203.388 175.595 204.262 175.234 204.906 174.59C205.549 173.947 205.914 173.073 205.914 172.164C205.914 172.162 205.914 172.162 205.914 172.16Z" fill="white"/>
</svg>
